HIERARCHY
ROOT Hips
{
  OFFSET 0.0000 0.0000 0.0000
  CHANNELS 6 Xposition Yposition Zposition Zrotation Xrotation Yrotation
  JOINT LeftHip
  {
    OFFSET 3.4300 0.0000 0.0000
    CHANNELS 3 Zrotation Xrotation Yrotation
    JOINT LeftKnee
    {
      OFFSET 0.0000 -18.4700 -0.0000
      CHANNELS 3 Zrotation Xrotation Yrotation
      JOINT LeftAnkle
      {
        OFFSET -0.0000 -17.9500 0.0000
        CHANNELS 3 Zrotation Xrotation Yrotation
        End Site
        {
            OFFSET 0.0000 -3.1200 -0.0000
        }
      }
    }
  }
  JOINT RightHip
  {
    OFFSET -3.4300 0.0000 0.0000
    CHANNELS 3 Zrotation Xrotation Yrotation
    JOINT RightKnee
    {
      OFFSET 0.0000 -18.4700 0.0000
      CHANNELS 3 Zrotation Xrotation Yrotation
      JOINT RightAnkle
      {
        OFFSET 0.0000 -17.9500 0.0000
        CHANNELS 3 Zrotation Xrotation Yrotation
        End Site
        {
            OFFSET -0.0000 -3.1200 0.0000
        }
      }
    }
  }
  JOINT Chest
  {
    OFFSET 0.0000 4.5700 0.0000
    CHANNELS 3 Zrotation Xrotation Yrotation
    JOINT Chest2
    {
      OFFSET 0.0000 6.5700 -0.0000
      CHANNELS 3 Zrotation Xrotation Yrotation
      JOINT LeftCollar
      {
        OFFSET 1.0600 4.1900 1.7600
        CHANNELS 3 Zrotation Xrotation Yrotation
        JOINT LeftShoulder
        {
          OFFSET 5.8100 0.0000 0.0000
          CHANNELS 3 Zrotation Xrotation Yrotation
          JOINT LeftElbow
          {
            OFFSET 0.0000 -12.0800 0.0000
            CHANNELS 3 Zrotation Xrotation Yrotation
            JOINT LeftWrist
            {
              OFFSET 0.0000 -9.8200 0.0000
              CHANNELS 3 Zrotation Xrotation Yrotation
              End Site
              {
                  OFFSET 0.0000 -7.3700 0.0000
              }
            }
          }
        }
      }
      JOINT RightCollar
      {
        OFFSET -1.0600 4.1900 1.7600
        CHANNELS 3 Zrotation Xrotation Yrotation
        JOINT RightShoulder
        {
          OFFSET -6.0600 0.0000 -0.0000
          CHANNELS 3 Zrotation Xrotation Yrotation
          JOINT RightElbow
          {
            OFFSET 0.0000 -11.0800 0.0000
            CHANNELS 3 Zrotation Xrotation Yrotation
            JOINT RightWrist
            {
              OFFSET -0.0000 -9.8200 0.0000
              CHANNELS 3 Zrotation Xrotation Yrotation
              End Site
              {
                  OFFSET 0.0000 -7.1400 0.0000
              }
            }
          }
        }
      }
    }
    JOINT Neck
    {
      OFFSET -0.0000 10.6200 0.0000
      CHANNELS 3 Zrotation Xrotation Yrotation
      JOINT Head
      {
        OFFSET 0.0000 5.1900 0.0000
        CHANNELS 3 Zrotation Xrotation Yrotation
        End Site
        {
            OFFSET 0.0000 4.1400 0.0000
        }
      }
    }
  }
}
MOTION
Frames:	27
Frame Time:	0.033333
44.4484 41.5590 -0.1296 -4.11 -0.02 -22.72 11.64 -10.31 -0.56 -4.95 21.92 0.05 -4.79 -8.44 -0.43 -6.82 1.31 -15.34 2.82 5.63 -35.85 0.42 4.41 0.34 0.51 15.98 -4.00 0.00 0.00 0.00 -1.44 0.22 1.24 -27.78 -59.55 -89.32 -78.57 -75.60 -96.61 18.54 -7.48 1.50 7.20 0.55 0.23 -63.07 -30.13 -62.71 7.62 -66.13 34.26 -30.31 -0.62 -0.64 18.27 7.55 -30.44 -2.87 -19.77 -24.83 
44.4484 41.5590 -0.1296 -4.11 -0.02 -22.72 11.64 -10.31 -0.56 -4.95 21.92 0.05 -4.79 -8.44 -0.43 -6.82 1.31 -15.34 2.82 5.63 -35.85 0.42 4.41 0.34 0.51 15.98 -4.00 0.00 0.00 0.00 -1.44 0.22 1.24 -27.78 -59.55 -89.32 -78.57 -75.60 -96.61 18.54 -7.48 1.50 7.20 0.55 0.23 -63.07 -30.13 -62.71 7.62 -66.13 34.26 -30.31 -0.62 -0.64 18.27 7.55 -30.44 -2.87 -19.77 -24.83 
44.7602 41.5054 0.0139 -4.52 -0.02 -24.27 11.52 -10.35 0.68 -4.64 23.32 0.34 -4.43 -9.42 -0.44 -7.13 0.58 -14.89 2.62 6.77 -34.64 0.92 4.69 0.25 0.58 16.03 -3.86 0.00 0.00 0.00 -2.36 0.36 0.11 -27.45 -59.26 -88.74 -68.52 -75.55 -85.42 17.97 -7.45 1.45 9.28 0.86 1.66 -65.87 -30.95 -62.29 5.02 -64.80 31.19 -29.91 -0.92 -0.71 20.50 8.20 -30.78 -4.18 -20.65 -24.33 
45.1149 41.4561 0.1442 -4.29 0.48 -25.85 10.94 -10.94 2.12 -4.07 24.30 0.50 -4.18 -10.09 -0.42 -7.93 -0.98 -15.03 2.45 8.04 -32.89 1.32 5.05 0.16 0.37 15.80 -3.70 0.00 0.00 0.00 -3.69 0.58 -1.48 -21.51 -60.13 -84.38 -68.49 -76.38 -83.08 16.85 -6.69 1.25 9.46 0.90 1.86 -63.14 -32.47 -60.75 5.48 -65.71 32.51 -28.98 -1.24 -0.77 19.51 8.97 -30.50 -2.64 -20.82 -24.39 
45.2959 41.4070 0.2786 -4.41 0.88 -28.23 11.65 -11.16 4.88 -4.52 25.74 0.42 -3.61 -11.15 -0.44 -8.67 -2.65 -13.12 3.35 9.84 -32.40 1.52 5.05 0.18 0.27 15.86 -2.60 0.00 0.00 0.00 -5.79 1.02 -3.97 -9.17 -61.76 -74.08 -74.31 -77.55 -86.83 13.69 -6.66 1.01 9.89 0.96 2.08 -60.42 -33.59 -58.62 5.75 -66.50 34.35 -28.02 -1.54 -0.82 19.15 7.93 -30.06 -2.81 -20.27 -24.11 
45.6343 41.3240 0.3416 -4.39 1.01 -30.36 12.02 -11.69 7.02 -5.32 27.54 0.87 -2.78 -12.15 -0.45 -10.24 -4.92 -11.72 4.57 13.09 -31.38 1.97 5.46 0.16 -0.04 15.99 -1.59 0.00 0.00 0.00 -5.24 0.88 -3.22 -4.27 -62.01 -69.22 -79.73 -78.07 -91.49 10.40 -7.24 0.82 10.27 1.00 2.18 -58.08 -34.28 -56.09 5.58 -66.41 35.55 -27.75 -1.91 -0.90 18.60 6.58 -29.52 -3.30 -19.43 -23.80 
45.9765 41.1881 0.3670 -4.22 0.93 -31.85 11.74 -12.47 8.12 -5.51 29.46 1.52 -2.37 -13.12 -0.43 -11.67 -6.43 -11.52 5.10 15.39 -28.53 1.78 5.47 0.17 -0.23 16.27 -1.21 0.00 0.00 0.00 -3.67 0.56 -1.25 -3.85 -61.62 -68.59 -85.26 -78.35 -97.45 8.57 -6.94 0.65 10.39 1.00 2.13 -55.44 -34.93 -53.46 5.39 -66.05 36.59 -28.02 -2.32 -1.01 17.43 5.92 -28.87 -3.01 -18.86 -23.56 
45.9530 41.0941 0.4498 -4.02 0.84 -32.93 12.06 -12.45 9.16 -6.17 30.40 1.85 -2.15 -13.85 -0.45 -12.09 -7.01 -11.04 5.20 15.73 -24.18 2.08 3.10 0.20 -0.48 16.40 -0.70 0.00 0.00 0.00 -3.56 0.53 -1.08 -1.01 -61.52 -66.43 -82.85 -78.85 -95.33 6.89 -6.98 0.52 11.34 1.11 2.51 -54.25 -35.07 -51.67 4.45 -65.36 36.34 -28.19 -2.26 -1.00 16.83 6.18 -28.57 -2.65 -19.25 -23.47 
45.9734 40.9991 0.4586 -4.01 0.71 -33.06 12.16 -12.81 9.23 -6.47 31.44 2.07 -2.05 -14.40 -0.44 -12.17 -6.88 -10.76 5.06 15.51 -22.56 2.90 1.52 0.18 -0.59 16.55 -0.80 0.00 0.00 0.00 -3.20 0.47 -0.68 0.09 -61.86 -65.18 -75.82 -79.49 -88.83 4.36 -7.37 0.35 12.06 1.17 2.60 -53.12 -34.66 -50.18 4.17 -64.99 35.56 -28.40 -1.81 -0.89 16.39 6.04 -28.37 -2.43 -19.14 -23.43 
45.9903 40.9621 0.4597 -4.06 0.63 -32.96 12.14 -13.03 9.19 -6.44 31.99 2.04 -2.05 -14.65 -0.43 -11.82 -6.45 -8.93 4.71 14.63 -24.26 3.49 1.56 0.14 -0.57 16.63 -0.96 0.00 0.00 0.00 -2.65 0.38 -0.06 -0.63 -61.98 -66.20 -72.48 -79.68 -87.96 3.79 -6.67 0.28 13.02 1.25 2.71 -52.74 -33.77 -49.26 4.27 -65.12 34.86 -28.50 -1.59 -0.84 16.11 6.16 -28.30 -2.20 -19.19 -23.46 
45.9844 40.9207 0.4653 -4.10 0.48 -32.82 12.11 -13.23 9.06 -6.42 32.62 2.03 -2.08 -14.96 -0.42 -11.90 -6.46 -7.77 4.93 14.99 -25.55 3.78 1.25 0.13 -0.57 16.74 -1.04 0.00 0.00 0.00 -1.78 0.25 0.96 -3.49 -62.10 -68.25 -77.14 -79.84 -95.37 3.24 -4.87 0.19 13.95 1.35 2.93 -53.57 -33.04 -49.14 4.12 -64.97 34.18 -28.58 -1.12 -0.73 15.93 6.21 -28.28 -2.07 -19.18 -23.51 
45.9473 40.8747 0.4454 -4.23 0.19 -32.46 12.08 -13.29 8.67 -6.42 33.20 2.01 -2.15 -15.23 -0.42 -12.06 -6.37 -8.36 5.02 15.72 -25.27 3.87 0.84 0.13 -0.46 16.98 -1.28 0.00 0.00 0.00 -0.47 0.09 2.50 -8.48 -62.36 -71.50 -83.83 -79.71 -102.67 2.92 -3.29 0.13 13.56 1.28 2.72 -53.56 -32.90 -49.26 3.43 -64.20 33.41 -28.58 -1.05 -0.71 15.16 6.24 -28.16 -1.52 -18.89 -23.66 
45.8421 40.8253 0.4350 -4.60 -0.22 -31.66 12.27 -13.25 7.90 -6.60 33.90 1.89 -2.18 -15.58 -0.43 -12.04 -5.87 -9.56 5.04 16.53 -24.76 3.94 0.27 0.14 0.09 17.35 -1.99 0.00 0.00 0.00 1.55 -0.11 5.01 -15.64 -61.99 -76.19 -96.08 -78.70 -114.50 4.38 -1.04 0.11 11.51 0.99 1.78 -51.71 -33.18 -48.92 3.57 -63.68 33.13 -28.94 -0.92 -0.68 13.44 6.32 -27.83 -0.31 -18.17 -23.95 
45.6129 40.8052 0.3804 -5.14 -0.50 -30.52 13.01 -13.14 7.00 -7.12 34.27 1.65 -2.18 -15.70 -0.45 -11.47 -5.14 -11.59 4.63 17.11 -23.69 3.97 -0.28 0.12 1.04 17.52 -2.95 0.00 0.00 0.00 3.05 -0.19 6.85 -23.18 -60.53 -80.77 -99.79 -77.61 -117.30 7.30 -0.79 0.16 10.41 0.83 1.18 -51.28 -32.80 -48.70 4.49 -63.95 32.96 -29.39 -0.12 -0.49 12.66 7.10 -27.69 0.38 -18.39 -24.08 
45.4728 40.8125 0.2743 -5.49 -0.55 -29.65 13.53 -13.25 6.27 -7.38 34.29 1.51 -2.26 -15.55 -0.46 -10.96 -4.67 -12.87 4.40 17.06 -23.23 3.86 -0.38 0.11 1.70 17.42 -3.72 0.00 0.00 0.00 3.18 -0.19 6.94 -27.50 -58.99 -82.96 -94.34 -77.29 -111.77 8.67 -2.56 0.32 9.92 0.75 0.85 -51.61 -32.33 -48.25 5.53 -63.94 33.00 -30.03 0.51 -0.33 12.59 7.53 -27.62 0.45 -18.53 -24.03 
45.4120 40.8423 0.2514 -5.52 -0.54 -29.18 13.53 -13.25 5.80 -7.32 34.00 1.44 -2.36 -15.36 -0.46 -10.80 -4.25 -13.54 4.33 16.57 -23.01 3.77 -0.19 0.11 1.90 17.13 -4.03 0.00 0.00 0.00 2.45 -0.16 6.04 -28.37 -58.58 -84.20 -94.05 -76.81 -111.57 10.83 -3.30 0.48 9.50 0.69 0.60 -51.72 -31.99 -48.03 6.10 -63.87 33.00 -30.32 0.66 -0.29 13.06 8.56 -27.79 0.46 -19.33 -24.02 
45.2863 40.8950 0.2685 -5.56 -0.60 -29.00 13.57 -12.79 5.55 -7.19 33.32 1.33 -2.55 -15.12 -0.47 -10.45 -3.73 -13.38 4.18 15.90 -23.32 3.76 0.00 0.11 1.88 16.87 -4.06 0.00 0.00 0.00 1.71 -0.12 5.17 -28.81 -58.67 -85.32 -93.42 -76.83 -110.79 11.88 -4.40 0.64 9.42 0.67 0.51 -52.11 -31.65 -48.29 6.51 -64.32 32.93 -30.15 0.88 -0.23 13.54 9.33 -27.96 0.35 -19.96 -24.00 
45.1881 40.9378 0.2458 -5.70 -0.63 -28.75 13.57 -12.43 5.16 -6.86 32.71 1.24 -2.85 -14.83 -0.47 -10.11 -3.17 -12.43 4.46 15.06 -24.59 3.58 0.24 0.14 1.98 16.70 -4.26 0.00 0.00 0.00 1.33 -0.09 4.74 -30.04 -58.85 -87.15 -93.02 -76.74 -109.97 12.91 -5.02 0.76 9.36 0.66 0.46 -52.56 -31.39 -48.71 6.79 -64.97 32.70 -29.79 1.15 -0.15 13.75 9.60 -27.97 0.26 -20.06 -23.91 
45.0947 40.9805 0.2538 -5.81 -0.62 -28.64 13.59 -12.10 4.96 -6.53 32.23 1.14 -3.10 -14.66 -0.48 -9.75 -2.56 -12.02 4.51 14.10 -25.10 3.40 0.54 0.17 2.08 16.48 -4.32 0.00 0.00 0.00 1.19 -0.08 4.58 -31.26 -58.74 -89.15 -93.10 -76.46 -109.94 14.34 -5.04 0.85 9.21 0.64 0.36 -52.50 -31.20 -48.82 7.12 -65.49 32.92 -29.54 1.19 -0.14 13.84 9.92 -27.93 0.35 -20.18 -23.83 
45.0241 41.0072 0.2458 -5.88 -0.63 -28.60 13.58 -11.85 4.79 -6.25 31.88 1.12 -3.34 -14.52 -0.49 -9.44 -2.27 -12.09 4.31 13.66 -25.01 3.35 0.69 0.16 2.07 16.27 -4.30 0.00 0.00 0.00 0.33 0.00 3.49 -30.02 -59.25 -88.88 -92.14 -76.50 -108.66 14.74 -5.36 0.92 9.26 0.64 0.36 -52.51 -31.12 -48.78 7.31 -65.67 33.09 -29.53 1.29 -0.12 14.16 10.11 -27.94 0.22 -20.34 -23.71 
44.9743 41.0288 0.2378 -5.91 -0.65 -28.63 13.46 -11.60 4.61 -5.91 31.48 1.16 -3.59 -14.34 -0.50 -9.24 -2.09 -12.11 4.12 13.37 -24.93 3.34 0.80 0.15 2.03 16.13 -4.30 0.00 0.00 0.00 -0.22 0.06 2.79 -28.74 -59.68 -87.97 -92.70 -76.58 -108.89 14.35 -5.53 0.91 9.33 0.65 0.37 -52.38 -31.06 -48.67 7.50 -65.88 33.25 -29.53 1.38 -0.09 14.04 10.03 -27.80 0.28 -20.16 -23.60 
44.9350 41.0484 0.2347 -5.92 -0.67 -28.67 13.36 -11.43 4.47 -5.64 31.22 1.21 -3.79 -14.23 -0.51 -9.07 -1.93 -12.04 3.97 13.10 -24.91 3.33 0.89 0.14 1.95 16.00 -4.27 0.00 0.00 0.00 -0.51 0.10 2.42 -27.89 -59.90 -87.40 -93.50 -76.56 -109.56 14.20 -5.44 0.89 9.44 0.65 0.39 -52.25 -31.00 -48.61 7.68 -66.12 33.39 -29.45 1.46 -0.07 14.08 10.03 -27.73 0.25 -20.11 -23.51 
44.9002 41.0614 0.2290 -5.93 -0.66 -28.69 13.29 -11.26 4.34 -5.44 30.94 1.27 -3.95 -14.10 -0.51 -8.91 -1.83 -11.98 3.84 12.89 -24.95 3.33 0.97 0.13 1.85 15.90 -4.25 0.00 0.00 0.00 -0.63 0.11 2.27 -27.42 -59.96 -87.07 -93.48 -76.56 -109.49 14.10 -5.46 0.89 9.55 0.66 0.42 -52.16 -30.95 -48.62 8.07 -66.57 33.53 -29.27 1.79 0.02 14.24 9.79 -27.68 0.03 -19.95 -23.39 
44.8830 41.0672 0.2231 -5.94 -0.65 -28.67 13.23 -11.19 4.26 -5.28 30.80 1.27 -4.05 -14.03 -0.51 -8.81 -1.73 -11.94 3.77 12.69 -25.00 3.32 1.06 0.13 1.77 15.82 -4.28 0.00 0.00 0.00 -0.64 0.11 2.25 -27.09 -59.98 -86.73 -93.57 -76.57 -109.57 13.95 -5.49 0.88 9.57 0.66 0.41 -51.95 -30.96 -48.52 8.82 -67.16 34.00 -29.11 2.34 0.16 14.02 9.52 -27.51 0.11 -19.63 -23.31 
44.8573 41.0747 0.2153 -5.97 -0.61 -28.66 13.30 -11.16 4.25 -5.24 30.71 1.26 -4.09 -13.98 -0.51 -8.63 -1.62 -11.80 3.67 12.42 -25.13 3.30 1.17 0.12 1.74 15.76 -4.31 0.00 0.00 0.00 -0.83 0.14 2.02 -25.95 -60.38 -84.69 -91.21 -76.31 -107.40 13.64 -5.37 0.85 9.04 0.61 0.21 -50.99 -31.24 -47.80 9.69 -67.30 34.81 -29.41 2.59 0.23 13.99 9.52 -27.43 0.18 -19.60 -23.24 
44.8343 41.0863 0.1856 -6.04 -0.50 -28.60 13.49 -11.25 4.17 -5.31 30.66 1.31 -4.10 -13.91 -0.51 -8.33 -1.58 -11.72 3.47 12.14 -25.25 3.31 1.33 0.11 1.77 15.71 -4.41 0.00 0.00 0.00 -2.96 0.46 -0.63 -16.75 -62.10 -75.78 -93.22 -76.45 -108.93 13.44 -4.57 0.74 7.40 0.48 -0.33 -48.60 -32.43 -46.42 9.41 -66.60 34.84 -29.78 2.48 0.20 14.09 9.43 -27.37 0.13 -19.54 -23.14 
44.8576 41.1017 0.1236 -6.28 -0.20 -28.28 13.78 -11.59 3.60 -5.44 30.58 1.66 -4.09 -13.76 -0.51 -7.79 -1.54 -12.01 3.21 11.63 -25.26 3.28 1.68 0.09 2.04 15.67 -4.96 0.00 0.00 0.00 -4.59 0.72 -2.25 -5.97 -61.66 -64.83 -99.41 -76.60 -115.42 12.88 -3.83 0.63 6.95 0.47 -0.30 -47.79 -33.94 -45.39 9.03 -66.19 35.11 -29.90 2.53 0.21 14.29 9.10 -27.23 -0.05 -19.32 -22.92 
